Coordinates
version=1
nRows=8
nColumns=46
inDegrees=yes

Units are S.I. units (second, meters, Newtons, ...)
Angles are in degrees.

endheader
time	pelvis_tilt	pelvis_list	pelvis_rotation	pelvis_tx	pelvis_ty	pelvis_tz	bb_angle	bb_tx	bb_ty	bb_tz	hip_flexion_r	hip_adduction_r	hip_rotation_r	knee_angle_r	knee_angle_r_beta	ankle_angle_r	subtalar_angle_r	mtp_angle_r	crank_angle_r	hip_flexion_l	hip_adduction_l	hip_rotation_l	knee_angle_l	knee_angle_l_beta	ankle_angle_l	subtalar_angle_l	mtp_angle_l	crank_angle_l	lumbar_extension	lumbar_bending	lumbar_rotation	arm_flex_r	arm_add_r	arm_rot_r	elbow_flex_r	pro_sup_r	wrist_flex_r	wrist_dev_r	arm_flex_l	arm_add_l	arm_rot_l	elbow_flex_l	pro_sup_l	wrist_flex_l	wrist_dev_l
      2.50500000	    -18.21652788	      3.89327350	      0.52764638	      0.09426489	      1.11304988	     -0.24294485	      0.00000000	      0.50000000	      0.00000000	      0.25000000	     76.84224905	     -2.55881060	      8.33647761	    109.88329740	      1.91782533	     -1.65392607	    -11.04127023	      0.00000000	      0.00000000	     51.25019531	     -4.15777506	     -7.85901789	     36.28849221	      0.63335367	     -9.96632494	     -2.17602575	      0.00000000	      0.00000000	    -55.70326130	     -4.68086754	      2.28779169	     87.94408735	    -23.43132196	     34.68653711	     46.84940721	     43.40204761	      0.00000000	      0.00000000	     86.53160552	     -7.93555823	     27.77265482	     48.47654298	     41.26390309	      0.00000000	      0.00000000
      2.51000000	    -18.11427149	      3.72785901	      0.25739291	      0.09395088	      1.11354466	     -0.24337602	      0.00000000	      0.50000000	      0.00000000	      0.25000000	     77.42335709	     -2.18849197	      8.41175937	    110.48853939	      1.92838880	     -1.15646634	    -10.72025760	      0.00000000	      0.00000000	     50.39483101	     -4.47201997	     -8.32107144	     35.32454882	      0.61652968	    -10.82470177	     -1.71647434	      0.00000000	      0.00000000	    -55.87296168	     -4.71961680	      2.55530496	     88.03106695	    -23.56169510	     34.69376205	     47.04065998	     43.41296314	      0.00000000	      0.00000000	     86.58215261	     -7.88521240	     27.78034378	     48.55261797	     41.31255636	      0.00000000	      0.00000000
      2.51500000	    -18.17957035	      3.37585645	      0.08583228	      0.09349500	      1.11360395	     -0.24406364	      0.00000000	      0.50000000	      0.00000000	      0.25000000	     78.18844602	     -1.87247651	      8.23331835	    111.09043355	      1.93889383	     -0.61363455	    -10.88016892	      0.00000000	      0.00000000	     49.83140774	     -4.80703758	     -8.39295396	     34.52861652	      0.60263804	    -11.49790748	     -1.34180695	      0.00000000	      0.00000000	    -55.83444028	     -4.50271641	      2.90253073	     88.17693701	    -23.49388862	     34.70612505	     47.13298820	     43.42136732	      0.00000000	      0.00000000	     86.69223667	     -7.96745401	     27.74379477	     48.55072931	     41.31573841	      0.00000000	      0.00000000
      2.52000000	    -18.18424187	      3.02983061	     -0.12665387	      0.09312496	      1.11400524	     -0.24456884	      0.00000000	      0.50000000	      0.00000000	      0.25000000	     78.87723827	     -1.51361814	      8.03352765	    111.57763567	      1.94739711	     -0.40439632	    -10.69807215	      0.00000000	      0.00000000	     49.16637428	     -5.19305265	     -8.56636348	     33.66900185	      0.58763494	    -12.32921519	     -0.89898869	      0.00000000	      0.00000000	    -55.87949188	     -4.36288543	      3.21180329	     88.28142091	    -23.45278935	     34.71025053	     47.23051141	     43.42638767	      0.00000000	      0.00000000	     86.73947625	     -8.02331383	     27.73468628	     48.54162542	     41.32316328	      0.00000000	      0.00000000
      2.52500000	    -18.14608398	      2.72427518	     -0.32897843	      0.09273989	      1.11437020	     -0.24512858	      0.00000000	      0.50000000	      0.00000000	      0.25000000	     79.53616853	     -1.19164835	      7.88472955	    112.05297780	      1.95569340	     -0.09177796	    -10.58550152	      0.00000000	      0.00000000	     48.48631687	     -5.53175375	     -8.77810130	     32.89962686	      0.57420681	    -13.05123139	     -0.53982554	      0.00000000	      0.00000000	    -55.94854137	     -4.20687825	      3.53459149	     88.39188947	    -23.40826853	     34.70754908	     47.31575724	     43.42827023	      0.00000000	      0.00000000	     86.86105775	     -8.11760738	     27.74479059	     48.53307361	     41.33000052	      0.00000000	      0.00000000
      2.53000000	    -18.05376839	      2.45183752	     -0.57373424	      0.09235171	      1.11481179	     -0.24561926	      0.00000000	      0.50000000	      0.00000000	      0.25000000	     80.14450486	     -0.86507733	      7.76106235	    112.49635541	      1.96343180	      0.41397904	    -10.58970881	      0.00000000	      0.00000000	     47.75878521	     -5.87329559	     -9.02067015	     32.17409589	      0.56154391	    -13.79416018	     -0.25473837	      0.00000000	      0.00000000	    -56.07821127	     -4.14315331	      3.82389385	     88.48767366	    -23.35077599	     34.70067341	     47.41266146	     43.42864214	      0.00000000	      0.00000000	     86.95860338	     -8.19767440	     27.77963710	     48.50380092	     41.33584485	      0.00000000	      0.00000000
      2.53500000	    -17.95733320	      2.17158266	     -0.84887207	      0.09202653	      1.11532711	     -0.24619549	      0.00000000	      0.50000000	      0.00000000	      0.25000000	     80.75015896	     -0.51826827	      7.62854892	    112.86308436	      1.96983243	      0.65770664	    -10.39423796	      0.00000000	      0.00000000	     47.02670735	     -6.22431810	     -9.27737402	     31.48230481	      0.54946988	    -14.55760226	      0.00104885	      0.00000000	      0.00000000	    -56.20041499	     -4.05340585	      4.13113723	     88.58154495	    -23.27251701	     34.68597629	     47.50886814	     43.42623464	      0.00000000	      0.00000000	     87.07812832	     -8.28107920	     27.82449430	     48.46043954	     41.33916697	      0.00000000	      0.00000000
      2.54000000	    -17.84980038	      1.92110372	     -1.15222912	      0.09172121	      1.11592185	     -0.24676659	      0.00000000	      0.50000000	      0.00000000	      0.25000000	     81.33588579	     -0.18409682	      7.51242628	    113.18768026	      1.97549769	      0.90016125	    -10.22086740	      0.00000000	      0.00000000	     46.29293997	     -6.56778925	     -9.56366519	     30.83489976	      0.53817053	    -15.28283274	      0.18018183	      0.00000000	      0.00000000	    -56.36645678	     -4.05585501	      4.39763646	     88.66315698	    -23.19832727	     34.64233444	     47.61135938	     43.41599919	      0.00000000	      0.00000000	     87.17834496	     -8.35702557	     27.90533870	     48.39183075	     41.34260171	      0.00000000	      0.00000000
